# xmcd
#
# Track frame offsets:
#	150
#	30692
#	56835
#	71142
#	85822
#	126447
#	158082
#	183202
#	200812
#	229247
#	250192
#
# Disc length: 3451
#
# Revision: 2
# Processed by: cddbd v1.5.1PL0 Copyright (c) Steve Scherf et al.
# Submitted via: CDex 1.51
# Normalized: r1:DSETVAR1,TDELIM( - )
#
DISCID=9d0d790b
DTITLE=Various Artist - Blue Note plays The Beatles
DYEAR=2004
DGENRE=Jazz
TTITLE0=Stanley Turrentine - Can´t buy my love
TTITLE1=Lee Morgan - Yesterday
TTITLE2=Buddy Rich - Norwegian Wood
TTITLE3=Bud Shank with Chet Baker - Hello Goodbye
TTITLE4=Grant Green - A day in the life
TTITLE5=Stanley Jordan - Eleanor Rigby
TTITLE6=Tony Williams - Blackbird
TTITLE7=Holly Hays - I`ve just seen a face
TTITLE8=Kevin Hays - And I love her
TTITLE9=Bobby McFerrin - Drive my car
TTITLE10=Dianne Reeves and Cassandra Wilson with Bob Belden - Come together
EXTD=YEAR: 2004
EXTT0=
EXTT1=
EXTT2=
EXTT3=
EXTT4=
EXTT5=
EXTT6=
EXTT7=
EXTT8=
EXTT9=
EXTT10=
PLAYORDER=
